<mxfile host="app.diagrams.net" modified="2023-09-27T01:37:37.668Z" agent="Mozilla/5.0 (X11; Linux x86_64) AppleWebKit/537.36 (KHTML, like Gecko) Chrome/117.0.0.0 Safari/537.36" etag="hAwWQkvujV3lZp1-QkMG" version="21.8.2" type="github">
  <diagram name="Page-1" id="A8JQLGdQjMddXGh0sszI">
    <mxGraphModel dx="2284" dy="757" grid="1" gridSize="10" guides="1" tooltips="1" connect="1" arrows="1" fold="1" page="1" pageScale="1" pageWidth="850" pageHeight="1100" math="0" shadow="0">
      <root>
        <mxCell id="0" />
        <mxCell id="1" parent="0" />
        <mxCell id="Dl4tYUrpGCv1v9jQSVC0-2" value="Backend" style="swimlane;whiteSpace=wrap;html=1;" vertex="1" parent="1">
          <mxGeometry x="-150" y="180" width="300" height="450" as="geometry" />
        </mxCell>
        <mxCell id="Dl4tYUrpGCv1v9jQSVC0-3" value="Frontend" style="swimlane;whiteSpace=wrap;html=1;startSize=23;" vertex="1" parent="1">
          <mxGeometry x="320" y="180" width="300" height="450" as="geometry" />
        </mxCell>
      </root>
    </mxGraphModel>
  </diagram>
</mxfile>
